<mxfile host="app.diagrams.net" modified="2023-11-21T09:18:53.954Z" agent="Mozilla/5.0 (Macintosh; Intel Mac OS X 10_15_7) AppleWebKit/537.36 (KHTML, like Gecko) Chrome/119.0.0.0 Safari/537.36" etag="d4JrqlI9Zjw3JEPqx91D" version="22.1.3" type="github">
  <diagram name="第 1 页" id="B6Rcy-OJeF384JA_0GIc">
    <mxGraphModel dx="1536" dy="955" grid="1" gridSize="10" guides="1" tooltips="1" connect="1" arrows="1" fold="1" page="1" pageScale="1" pageWidth="827" pageHeight="1169" math="0" shadow="0">
      <root>
        <mxCell id="0" />
        <mxCell id="1" parent="0" />
        <mxCell id="Ujf8WZZVIxeqTtY7fy4s-6" value="" style="edgeStyle=orthogonalEdgeStyle;rounded=0;orthogonalLoop=1;jettySize=auto;html=1;" edge="1" parent="1" source="Ujf8WZZVIxeqTtY7fy4s-1" target="Ujf8WZZVIxeqTtY7fy4s-2">
          <mxGeometry relative="1" as="geometry" />
        </mxCell>
        <mxCell id="Ujf8WZZVIxeqTtY7fy4s-1" value="开始 ES 索引数据同步" style="ellipse;whiteSpace=wrap;html=1;" vertex="1" parent="1">
          <mxGeometry x="150" y="240" width="90" height="60" as="geometry" />
        </mxCell>
        <mxCell id="Ujf8WZZVIxeqTtY7fy4s-7" value="" style="edgeStyle=orthogonalEdgeStyle;rounded=0;orthogonalLoop=1;jettySize=auto;html=1;" edge="1" parent="1" source="Ujf8WZZVIxeqTtY7fy4s-2" target="Ujf8WZZVIxeqTtY7fy4s-3">
          <mxGeometry relative="1" as="geometry" />
        </mxCell>
        <mxCell id="Ujf8WZZVIxeqTtY7fy4s-2" value="下发存量数据同步任务" style="rounded=1;whiteSpace=wrap;html=1;" vertex="1" parent="1">
          <mxGeometry x="145" y="340" width="100" height="50" as="geometry" />
        </mxCell>
        <mxCell id="Ujf8WZZVIxeqTtY7fy4s-11" value="" style="edgeStyle=orthogonalEdgeStyle;rounded=0;orthogonalLoop=1;jettySize=auto;html=1;" edge="1" parent="1" source="Ujf8WZZVIxeqTtY7fy4s-3" target="Ujf8WZZVIxeqTtY7fy4s-4">
          <mxGeometry relative="1" as="geometry" />
        </mxCell>
        <mxCell id="Ujf8WZZVIxeqTtY7fy4s-3" value="目标集群对源集群创建索引快照恢复任务" style="rounded=1;whiteSpace=wrap;html=1;" vertex="1" parent="1">
          <mxGeometry x="145" y="430" width="100" height="50" as="geometry" />
        </mxCell>
        <mxCell id="Ujf8WZZVIxeqTtY7fy4s-12" value="" style="edgeStyle=orthogonalEdgeStyle;rounded=0;orthogonalLoop=1;jettySize=auto;html=1;" edge="1" parent="1" source="Ujf8WZZVIxeqTtY7fy4s-4" target="Ujf8WZZVIxeqTtY7fy4s-5">
          <mxGeometry relative="1" as="geometry" />
        </mxCell>
        <mxCell id="Ujf8WZZVIxeqTtY7fy4s-4" value="轮询目标集群快照恢复是否完成" style="rounded=1;whiteSpace=wrap;html=1;" vertex="1" parent="1">
          <mxGeometry x="145" y="520" width="100" height="50" as="geometry" />
        </mxCell>
        <mxCell id="Ujf8WZZVIxeqTtY7fy4s-9" style="edgeStyle=orthogonalEdgeStyle;rounded=0;orthogonalLoop=1;jettySize=auto;html=1;entryX=0.5;entryY=1;entryDx=0;entryDy=0;exitX=0.5;exitY=1;exitDx=0;exitDy=0;" edge="1" parent="1" source="Ujf8WZZVIxeqTtY7fy4s-5" target="Ujf8WZZVIxeqTtY7fy4s-4">
          <mxGeometry relative="1" as="geometry" />
        </mxCell>
        <mxCell id="Ujf8WZZVIxeqTtY7fy4s-10" value="否" style="edgeLabel;html=1;align=center;verticalAlign=middle;resizable=0;points=[];" vertex="1" connectable="0" parent="Ujf8WZZVIxeqTtY7fy4s-9">
          <mxGeometry x="-0.0697" relative="1" as="geometry">
            <mxPoint as="offset" />
          </mxGeometry>
        </mxCell>
        <mxCell id="Ujf8WZZVIxeqTtY7fy4s-13" value="" style="edgeStyle=orthogonalEdgeStyle;rounded=0;orthogonalLoop=1;jettySize=auto;html=1;" edge="1" parent="1" source="Ujf8WZZVIxeqTtY7fy4s-5" target="Ujf8WZZVIxeqTtY7fy4s-8">
          <mxGeometry relative="1" as="geometry" />
        </mxCell>
        <mxCell id="Ujf8WZZVIxeqTtY7fy4s-5" value="快照恢复完成" style="rhombus;whiteSpace=wrap;html=1;" vertex="1" parent="1">
          <mxGeometry x="290" y="505" width="80" height="80" as="geometry" />
        </mxCell>
        <mxCell id="Ujf8WZZVIxeqTtY7fy4s-15" value="" style="edgeStyle=orthogonalEdgeStyle;rounded=0;orthogonalLoop=1;jettySize=auto;html=1;" edge="1" parent="1" source="Ujf8WZZVIxeqTtY7fy4s-8" target="Ujf8WZZVIxeqTtY7fy4s-14">
          <mxGeometry relative="1" as="geometry" />
        </mxCell>
        <mxCell id="Ujf8WZZVIxeqTtY7fy4s-8" value="读取目标索引点位作为增量初始化点位" style="rounded=1;whiteSpace=wrap;html=1;" vertex="1" parent="1">
          <mxGeometry x="410" y="520" width="100" height="50" as="geometry" />
        </mxCell>
        <mxCell id="Ujf8WZZVIxeqTtY7fy4s-20" value="" style="edgeStyle=orthogonalEdgeStyle;rounded=0;orthogonalLoop=1;jettySize=auto;html=1;" edge="1" parent="1" source="Ujf8WZZVIxeqTtY7fy4s-14" target="Ujf8WZZVIxeqTtY7fy4s-17">
          <mxGeometry relative="1" as="geometry" />
        </mxCell>
        <mxCell id="Ujf8WZZVIxeqTtY7fy4s-14" value="标记全量初始化完成" style="rounded=1;whiteSpace=wrap;html=1;" vertex="1" parent="1">
          <mxGeometry x="410" y="430" width="100" height="50" as="geometry" />
        </mxCell>
        <mxCell id="Ujf8WZZVIxeqTtY7fy4s-21" value="" style="edgeStyle=orthogonalEdgeStyle;rounded=0;orthogonalLoop=1;jettySize=auto;html=1;" edge="1" parent="1" source="Ujf8WZZVIxeqTtY7fy4s-17" target="Ujf8WZZVIxeqTtY7fy4s-18">
          <mxGeometry relative="1" as="geometry" />
        </mxCell>
        <mxCell id="Ujf8WZZVIxeqTtY7fy4s-17" value="下发增量任务" style="rounded=1;whiteSpace=wrap;html=1;" vertex="1" parent="1">
          <mxGeometry x="410" y="340" width="100" height="50" as="geometry" />
        </mxCell>
        <mxCell id="Ujf8WZZVIxeqTtY7fy4s-18" value="增量任务迟勋运行" style="strokeWidth=2;html=1;shape=mxgraph.flowchart.terminator;whiteSpace=wrap;" vertex="1" parent="1">
          <mxGeometry x="422.5" y="255" width="75" height="45" as="geometry" />
        </mxCell>
      </root>
    </mxGraphModel>
  </diagram>
</mxfile>
